<?xml version="1.0" encoding="UTF-8" standalone="no"?>
<svg
   
   
   
   
   xmlns="http://www.w3.org/2000/svg"
   
   
   version="1.2"
   width="13.786423"
   height="25.230381"
   viewBox="0 0 2.2141 4.052"
   
   
   >
  <metadata
     >
    <rdf:RDF>
      <cc:Work
         rdf:about="">
        <dc:format>image/svg+xml</dc:format>
        <dc:type
           rdf:resource="http://purl.org/dc/dcmitype/StillImage" />
        <dc:title></dc:title>
      </cc:Work>
    </rdf:RDF>
  </metadata>
  <defs
      />
  <sodipodi:namedview
     pagecolor="#ffffff"
     bordercolor="#666666"
     borderopacity="1"
     objecttolerance="10"
     gridtolerance="10"
     guidetolerance="10"
     
     
     
     
     
     showgr
     fit-margin-top="0"
     fit-margin-left="0"
     fit-margin-right="0"
     fit-margin-bottom="0"
     
     
     
     
     
     
      />
  <!-- Page: 1/1 -->
  <text
     transform="translate(-8.8708,-2.05)"
     font-size="2.1995"
     
     style="font-size:2.19950008px;text-anchor:start;fill:currentColor;font-family:Century Schoolbook L">
    <tspan
        />
  </text>
  <rect
     transform="translate(1.2511,3)"
     x="-0.064999998"
     y="-3"
     width="0.13"
     height="3.3122001"
     ry="0.039999999"
     
     style="fill:currentColor" />
  <path
     transform="matrix(0.004,0,0,-0.004,1.7661,3.5)"
     d="M 0,0 C 0,31 25,56 56,56 87,56 112,31 112,0 112,-31 87,-56 56,-56 25,-56 0,-31 0,0 z"
     
     
     style="fill:currentColor" />
  <path
     transform="matrix(0.004,0,0,-0.004,0,3.5)"
     d="m 220,138 c 56,0 109,-29 109,-91 0,-72 -56,-121 -103,-149 -36,-21 -76,-36 -117,-36 -56,0 -109,29 -109,91 0,72 56,121 103,149 36,21 76,36 117,36 z"
     
     
     style="fill:currentColor" />
</svg>
